<svg width="40" height="40" viewBox="0 0 40 40" fill="none" xmlns="http://www.w3.org/2000/svg">
<path d="M30 30C30.6944 30 31.2844 29.7567 31.77 29.27C32.2567 28.7844 32.5 28.1944 32.5 27.5C32.5 26.8056 32.2567 26.2156 31.77 25.73C31.2844 25.2433 30.6944 25 30 25C29.3056 25 28.7156 25.2433 28.23 25.73C27.7433 26.2156 27.5 26.8056 27.5 27.5C27.5 28.1944 27.7433 28.7844 28.23 29.27C28.7156 29.7567 29.3056 30 30 30ZM30 35C30.8333 35 31.6111 34.8056 32.3333 34.4167C33.0556 34.0278 33.6528 33.4861 34.125 32.7917C33.4861 32.4028 32.8194 32.1183 32.125 31.9383C31.4306 31.7572 30.7222 31.6667 30 31.6667C29.2778 31.6667 28.5694 31.7572 27.875 31.9383C27.1806 32.1183 26.5139 32.4028 25.875 32.7917C26.3472 33.4861 26.9444 34.0278 27.6667 34.4167C28.3889 34.8056 29.1667 35 30 35V35ZM8.33333 35C7.41667 35 6.63167 34.6739 5.97833 34.0217C5.32611 33.3683 5 32.5833 5 31.6667V8.33333C5 7.41667 5.32611 6.63167 5.97833 5.97833C6.63167 5.32611 7.41667 5 8.33333 5H31.6667C32.5833 5 33.3683 5.32611 34.0217 5.97833C34.6739 6.63167 35 7.41667 35 8.33333V19.5C34.4722 19.25 33.9306 19.0344 33.375 18.8533C32.8194 18.6733 32.25 18.5417 31.6667 18.4583V8.33333H8.33333V31.6667H18.4167C18.5 32.2778 18.6322 32.8611 18.8133 33.4167C18.9933 33.9722 19.2083 34.5 19.4583 35H8.33333ZM8.33333 30V31.6667V8.33333V18.4583V18.3333V30ZM11.6667 26.6667C11.6667 27.1389 11.8261 27.5344 12.145 27.8533C12.465 28.1733 12.8611 28.3333 13.3333 28.3333H18.4583C18.5417 27.75 18.6733 27.1806 18.8533 26.625C19.0344 26.0694 19.2361 25.5278 19.4583 25H13.3333C12.8611 25 12.465 25.1594 12.145 25.4783C11.8261 25.7983 11.6667 26.1944 11.6667 26.6667ZM11.6667 20C11.6667 20.4722 11.8261 20.8678 12.145 21.1867C12.465 21.5067 12.8611 21.6667 13.3333 21.6667H21.8333C22.7222 20.8333 23.715 20.1389 24.8117 19.5833C25.9094 19.0278 27.0833 18.6528 28.3333 18.4583C28.0833 18.4028 27.8056 18.3678 27.5 18.3533C27.1944 18.34 26.9167 18.3333 26.6667 18.3333H13.3333C12.8611 18.3333 12.465 18.4928 12.145 18.8117C11.8261 19.1317 11.6667 19.5278 11.6667 20ZM11.6667 13.3333C11.6667 13.8056 11.8261 14.2011 12.145 14.52C12.465 14.84 12.8611 15 13.3333 15H26.6667C27.1389 15 27.5344 14.84 27.8533 14.52C28.1733 14.2011 28.3333 13.8056 28.3333 13.3333C28.3333 12.8611 28.1733 12.465 27.8533 12.145C27.5344 11.8261 27.1389 11.6667 26.6667 11.6667H13.3333C12.8611 11.6667 12.465 11.8261 12.145 12.145C11.8261 12.465 11.6667 12.8611 11.6667 13.3333ZM30 38.3333C27.6944 38.3333 25.7294 37.5211 24.105 35.8967C22.4794 34.2711 21.6667 32.3056 21.6667 30C21.6667 27.6944 22.4794 25.7289 24.105 24.1033C25.7294 22.4789 27.6944 21.6667 30 21.6667C32.3056 21.6667 34.2711 22.4789 35.8967 24.1033C37.5211 25.7289 38.3333 27.6944 38.3333 30C38.3333 32.3056 37.5211 34.2711 35.8967 35.8967C34.2711 37.5211 32.3056 38.3333 30 38.3333Z" fill="#F9995D"/>
</svg>
